# xmcd
#
# Track frame offsets: 
#        150
#        20990
#        36051
#        55518
#        70497
#        80554
#        97315
#        120473
#        145005
#        162080
#        177564
#
# Disc length: 2559 seconds
#
# Revision: 0
# Processed by: cddbd v1.5.2PL0 Copyright (c) Steve Scherf et al.
# Submitted via: ExactAudioCopy v0.95b4
#
DISCID=9809fd0b
DTITLE=pepe smith - idiosyncrasies
DYEAR=1900
DGENRE=Blues
TTITLE0=eto na ako
TTITLE1=silver whore
TTITLE2=the blessing
TTITLE3=midnight shuffle
TTITLE4=mescaline lullabye
TTITLE5=hi-tek babe
TTITLE6=walang kokontra
TTITLE7=ihip ng hangin
TTITLE8=jueteng shed
TTITLE9=spike it up
TTITLE10=mighty great big hearted love song
EXTD=
EXTT0=
EXTT1=
EXTT2=
EXTT3=
EXTT4=
EXTT5=
EXTT6=
EXTT7=
EXTT8=
EXTT9=
EXTT10=
PLAYORDER=
